<?xml version="1.0" encoding="UTF-8"?>
<svg xmlns="http://www.w3.org/2000/svg" width="512" height="512" viewBox="0 0 512 512" fill="none">
  <path d="M443.518 114.06C443.518 114.06 421.116 102.789 363.875 95.5197C369.701 88.9673 375.476 78.5466 377.914 59.973C378.999 51.8532 374.058 48.6187 365.327 48.6187C343.96 48.5853 331.106 47.4516 314.112 44.984C285.65 27.444 257.623 37.8646 257.623 37.8646C223.301 28.6278 192.586 44.4671 192.586 44.4671C176.594 44.5838 158.398 43.6668 146.062 41.8495C140.437 40.9491 136.914 40.1321 132.207 40.8157C124.311 41.9828 123.727 67.159 133.309 81.998C135.378 85.5493 139.969 91.1347 144.777 96.0366C90.6241 103.339 69.3069 114.043 69.3069 114.043C36.3546 253.246 89.4889 373.175 184.507 441.184C211.499 461.525 234.402 476.28 256.421 489.435C278.439 476.28 301.342 461.508 328.335 441.184C423.336 373.191 476.47 253.263 443.518 114.06Z" fill="black"></path>
  <path d="M332.09 254.495C332.104 254.48 332.118 254.48 332.09 254.495V254.495Z" fill="black"></path>
  <path d="M227.991 274.904C232.231 269.735 236.838 265.3 242.213 261.499C239.726 259.532 237.673 257.431 236.02 255.247C230.862 257.681 226.104 259.515 220.612 263.883C224.702 257.931 227.707 256.03 233.95 251.862C233.8 251.595 233.383 251.045 233.166 250.678C224.602 253.763 217.608 257.531 212.933 261.666C212.883 261.616 212.817 261.549 212.75 261.482C212.716 261.516 212.683 261.549 212.65 261.582C210.146 259.081 207.158 255.08 204.47 250.962C202.801 254.646 201.165 258.748 199.846 263.083C198.878 266.651 198.143 269.669 197.926 271.019C197.91 271.086 197.876 271.153 197.859 271.219C197.759 271.82 197.659 272.403 197.559 273.003C196.14 272.803 194.137 272.286 191.967 271.603C192.267 279.072 193.92 286.725 196.474 295.095C196.207 290.377 195.873 287.709 196.441 284.141C198.143 292.01 199.178 294.912 204.203 302.148C220.779 286.658 237.873 277.838 257.938 272.737C257.938 272.737 257.938 272.737 257.955 272.737C257.254 271.703 256.586 270.669 256.002 269.685C251.528 267.651 247.772 265.617 245.001 263.5C239.876 266.201 234.434 269.835 227.991 274.904Z" fill="#FFD200"></path>
  <path d="M217.358 464.692C205.539 429.846 210.481 408.521 230.212 360.87C215.672 375.392 204.388 381.511 197.493 404.92C197.861 399.168 198.912 393.766 200.081 390.948C192.101 381.444 186.609 370.04 183.721 353.617C181.919 356.585 180.266 359.719 178.83 363.904C179.031 357.052 180.082 353.734 182.803 347.415C182.72 346.764 182.636 346.114 182.553 345.447C180.833 348.298 179.198 351.033 178.58 353.384C171.819 333.526 168.698 302.381 175.174 279.489C176.844 313.469 186.643 334.393 203.169 352.05C204.588 349.849 206.174 347.898 208.194 345.914C206.641 348.482 205.523 350.833 204.621 353.1C203.302 355.935 202.601 358.286 201.182 363.271C204.371 358.069 206.057 355.268 207.993 352.45C224.336 329.691 247.456 322.189 262.947 306.733C262.947 306.733 254.117 310.201 246.838 315.719C257.889 305.165 269.958 301.914 279.857 287.025C280.692 285.758 281.727 284.241 282.812 282.507C282.094 282.657 281.477 282.674 280.909 282.59C278.939 285.708 275.033 290.677 271.277 293.628C274.449 289.209 276.085 285.475 277.053 282.49C272.746 281.757 264.216 280.806 261.211 277.138C257.989 278.705 253.566 280.389 249.309 282.657C241.313 286.909 235.771 290.643 227.558 296.662C234.335 293.628 237.974 292.327 244.084 290.627C229.144 297.763 211.699 311.918 203.052 324.806C197.226 318.704 194.171 311.418 191.45 299.713C191 303.865 191.066 306.783 191.684 312.235C185.975 296.746 184.389 281.29 185.808 269.302C181.985 267.568 178.58 265.067 176.043 262.983C166.11 282.34 156.111 314.402 156.545 335.894C158.231 329.141 160.484 324.189 160.484 324.189C157.68 355.001 162.554 394.049 182.269 426.144C191.3 440.833 202.601 452.338 217.358 464.692Z" fill="white"></path>
  <path d="M290.474 396.117C327.85 356.768 336.096 323.339 321.74 285.575C322.074 316.42 254.316 362.07 243.883 378.977C247.506 376.276 259.842 368.59 262.429 366.872C253.048 374.375 247.956 379.177 241.446 388.814C247.839 382.495 253.749 379.26 258.824 375.792C233.049 398.317 225.821 435.748 234.118 475.697C241.68 480.515 249.025 485.033 256.253 489.368C251.662 450.787 269.591 418.092 290.474 396.117Z" fill="white"></path>
  <path d="M138.683 210.246C139.968 218.783 142.422 226.803 146.111 233.588C149.049 227.286 154.324 222.334 158.164 219.733C158.347 220.383 158.481 220.834 158.681 221.467C155.309 224.902 152.571 228.903 150.068 233.422C153.339 229.537 156.511 227.086 159.783 224.585C164.758 237.357 173.922 245.476 183.921 250.962C186.292 238.79 190.582 228.253 195.874 223.101C196.124 223.518 196.441 224.135 196.692 224.535C192.852 230.637 191.7 233.822 190.114 240.124C193.336 234.656 195.874 231.221 198.895 227.886C201.7 231.821 204.42 234.539 206.924 237.04C215.922 228.053 234.819 227.67 245.085 226.652C233.099 217.066 188.562 225.502 170.617 199.959C171.685 197.892 173.104 196.024 175.291 193.69C170.784 196.391 162.988 203.36 158.264 208.996C159.332 206.045 160.467 203.677 161.769 201.66C154.424 187.604 155.61 169.748 157.095 156.376C159.165 154.842 161.385 153.442 163.839 152.274C157.246 153.808 152.388 156.093 146.245 160.394C143.941 142.854 151.269 123.797 157.246 110.809C154.525 111.309 152.538 112.259 150.118 113.81C153.139 99.3211 158.498 87.0164 169.031 75.4954C156.161 86.6663 146.362 101.105 141.103 119.112C144.008 117.661 145.21 117.211 147.447 116.594C147.23 116.978 146.846 117.578 146.629 117.961C142.439 120.262 139.935 122.096 136.179 126.315C139.918 123.897 142.088 122.763 144.525 121.796C135.177 138.519 126.664 156.343 130.72 182.536C133.274 179.368 137.314 176.267 139.384 175.283C139.3 175.767 139.217 176.267 139.15 176.75C134.743 180.885 131.655 185.804 129.668 190.322C132.206 186.954 134.843 184.22 138.399 182.019C137.247 191.456 137.297 201.143 138.683 210.246Z" fill="white"></path>
  <path d="M329.87 187.555C329.386 190.256 329.319 193.24 329.419 195.391C334.694 196.791 340.804 188.688 343.475 176.6C345.862 178.634 348.099 180.735 350.636 183.686C348.7 178.885 347.031 176.317 344.109 173.032C344.193 172.449 344.527 171.648 344.593 171.048C344.593 171.048 346.814 172.616 348.45 174.95C349.735 171.215 350.736 162.812 351.354 151.224C349.351 155.109 345.829 158.06 342.273 159.811C339.302 175.65 333.993 184.737 329.87 187.555Z" fill="#FFD200"></path>
  <path d="M352.305 116.744C352.305 113.126 352.055 110.475 351.137 107.374C352.005 107.624 353.29 108.258 353.975 108.591C353.39 101.038 353.958 97.0703 350.97 90.201C350.87 94.1025 350.72 99.1544 348.266 101.339C346.262 103.139 344.176 104.54 342.089 105.473C345.678 107.958 349.735 111.859 352.305 116.744Z" fill="#FFD200"></path>
  <path d="M170.683 182.536C172.97 180.552 175.341 179.368 178.028 178.484C178.162 178.751 178.312 179.018 178.462 179.285C174.005 182.236 171.284 184.72 167.528 189.739C172.336 186.204 176.292 184.17 180.349 182.336C188.645 194.274 206.424 203.811 226.222 206.328C223.534 200.693 213.385 193.623 209.729 188.038C202.818 177.484 206.874 165.013 212.85 157.476C198.511 163.829 194.755 168.264 192.885 178.034C175.591 161.128 173.455 118.595 176.476 95.1028C166.877 112.526 159.182 125.114 159.182 149.69C161.97 148.49 165.041 147.323 168.38 146.889C166.594 156.226 167.028 171.232 170.683 182.536Z" fill="#FFD200"></path>
  <path d="M219.143 83.1651C224.819 87.9168 227.573 91.3848 239.192 93.8024C241.178 94.2192 243.933 94.2192 246.17 94.0358C241.546 97.4371 235.219 98.8376 228.659 99.6046C220.078 100.638 206.74 94.0192 197.075 92.1351C193.469 88.367 192.818 84.4822 194.504 81.9313C195.205 80.8642 196.14 78.3466 198.461 76.2625C198.928 76.2625 199.412 76.2625 199.896 76.2958C202.968 76.5626 206.039 76.946 209.061 77.6296C212.55 78.4633 216.422 80.9476 219.143 83.1651Z" fill="white"></path>
  <path d="M228.393 119.679C237.407 120.212 245.086 122.53 251.78 124.164C252.831 124.414 253.85 124.697 254.918 124.981C266.804 128.282 278.021 131.917 287.87 135.585C291.51 138.002 273.998 133.567 255.002 128.416C255.369 130.099 256.237 131.7 257.856 133.117C259.626 134.685 260.894 136.168 261.829 137.569C256.688 136.135 251.396 134.885 246.204 134.068C239.661 133.034 233.234 132.65 227.408 133.317C234.87 133.818 244.234 135.001 253.916 137.419C254.117 137.469 254.3 137.502 254.501 137.552C254.718 137.586 254.935 137.636 255.152 137.686C267.321 140.153 278.906 143.021 289.156 146.005C292.561 147.89 280.091 146.022 264.25 143.054C265.518 148.023 264.817 151.758 273.581 154.442C284.365 157.743 301.192 155.993 307.886 153.092C312.359 151.157 317.017 147.023 317.835 145.189C318.135 144.522 318.402 143.955 318.619 143.405C312.526 141.437 314.63 134.218 307.735 129.949C302.777 126.882 302.744 123.914 300.14 119.012C299.188 117.195 297.769 115.127 295.85 112.676C288.688 104.223 285.767 102.973 278.806 103.656C274.149 104.106 266.787 105.774 261.178 112.81C259.459 112.109 257.739 111.442 256.003 110.809C246.872 107.458 237.54 105.057 228.343 104.89C237.874 106.174 244.268 108.158 256.053 112.359C268.356 116.461 279.841 120.829 289.79 125.148C293.062 127.632 276.636 122.813 258.29 116.828C257.005 118.845 255.803 121.179 255.202 123.547C252.598 122.78 249.994 122.096 247.406 121.53C240.963 120.062 234.569 119.295 228.393 119.679Z" fill="white"></path>
  <path d="M264.733 80.6308C264.216 80.364 263.699 80.0472 263.164 79.6971C263.098 80.1806 262.964 80.6975 262.747 81.281C257.338 81.6478 250.194 74.0616 246.838 71.0105C241.797 66.4254 236.455 65.275 228.977 64.558C225.488 64.8081 224.904 63.6243 229.177 62.5406C234.135 61.8237 238.375 62.0904 242.131 63.0241C239.51 60.7733 236.722 58.7558 233.334 57.5554C230.763 56.6551 227.942 55.5546 225.221 55.4046C223.551 55.3212 221.431 55.8214 219.612 56.3883C216.44 57.372 212.634 59.106 210.264 60.4565C210.347 63.9078 209.078 67.3591 209.546 70.8271C209.796 72.6611 209.396 73.8282 210.948 74.8286C211.866 75.4288 212.801 76.4125 213.719 76.896C214.671 77.4129 216.807 77.1128 218.377 77.0294C222.199 76.3625 225.221 75.0287 228.443 74.8119C236.989 74.245 245.219 75.4622 250.778 79.4637C256.22 83.6652 262.964 87.8168 264.65 88.7172C265.268 89.0506 266.102 89.7842 267.087 89.7175C267.722 89.3507 268.339 88.9839 268.957 88.6338C269.007 88.2837 269.007 87.9502 269.007 87.6834C268.99 86.0495 268.106 82.3648 264.733 80.6308Z" fill="white"></path>
  <path d="M340.052 73.7949C339.685 71.8942 338.984 68.793 338.233 67.5592C336.647 65.0082 335.295 63.1575 333.609 61.4402C330.537 59.4728 326.598 58.0723 321.172 56.555C318.635 55.8548 313.477 55.3546 312.525 55.5546C310.939 55.8548 310.188 56.9218 309.671 57.9889C308.869 59.5895 312.241 63.5077 314.662 67.2257C316.598 64.558 319.186 63.3242 324.01 62.9074C327.516 63.0241 327.549 64.0745 324.912 64.508C323.326 64.7415 320.571 66.5255 318.668 71.1605C317.383 74.2617 317.366 79.1135 312.375 80.4641C311.924 79.9472 311.59 79.4303 311.357 78.9301C310.689 80.0139 309.47 82.048 310.455 84.0821L311.691 85.1492C312.158 85.3826 312.609 85.6327 313.093 85.9161C312.692 82.198 317.834 79.0135 319.854 77.0461C324.227 72.7778 330.303 74.2951 333.091 75.2788C335.128 76.0124 336.764 77.8631 338.6 78.6967C340.286 79.0635 340.319 77.1128 340.586 76.3458C340.854 75.5289 340.203 74.6118 340.052 73.7949Z" fill="white"></path>
  <path d="M265.368 240.308C265.218 242.842 266.319 245.776 267.955 248.611C269.575 251.395 271.912 253.729 274.566 254.613C275.1 256.681 275.284 258.565 275.1 260.715C278.773 261.599 281.393 260.715 284.632 259.098C285.433 260.715 285.617 262.866 285.35 265.751C288.404 265.484 290.391 264.934 292.761 263.2C292.895 264.584 292.811 266.651 292.361 268.352C293.897 266.101 294.614 264.483 294.982 262.466C295.282 262.349 295.599 262.216 295.9 262.066C296.234 264.484 296.317 266.551 295.683 270.502C298.02 266.284 298.821 263.867 299.272 259.915C299.555 259.715 299.656 259.798 299.923 259.598C300.507 261.699 300.991 263.683 300.891 266.684C307.268 265.434 310.506 262.149 312.827 256.814C313.845 257.798 315.214 259.465 316.082 261.082C321.474 258.515 323.577 252.095 324.528 247.894C325.029 245.61 325.53 241.491 325.029 239.908C325.58 240.124 326.098 240.408 326.615 240.674C328.769 236.189 327.667 229.904 330.354 226.119C332.508 223.085 330.872 220.083 329.904 216.599C329.002 234.989 322.108 226.953 320.422 226.069C314.329 222.884 292.795 223.151 284.114 225.485C280.509 226.452 277.821 227.003 275.801 228.953C269.575 234.939 267.488 232.571 266.369 227.203C266.203 225.035 265.935 223.185 265.501 221.367C265.451 221.017 265.418 220.65 265.368 220.283C265.401 220.517 265.385 220.75 265.385 220.967C265.485 225.686 260.293 225.802 259.993 230.171C259.959 230.787 260.009 231.471 260.176 232.255C260.694 234.089 265.585 237.64 265.368 240.308Z" fill="white"></path>
  <path d="M244.451 83.4986C242.765 83.2151 241.53 82.2481 241.68 81.3644C241.83 80.4808 243.333 79.9972 245.002 80.2974C246.688 80.5975 247.923 81.5478 247.773 82.4315C247.623 83.2985 246.137 83.7987 244.451 83.4986Z" fill="white"></path>
  <path d="M329.386 79.6805C329.603 80.4474 328.585 81.4311 327.099 81.8646C325.63 82.2981 324.245 82.0147 324.011 81.2477C323.777 80.4808 324.796 79.4804 326.265 79.0469C327.767 78.6134 329.152 78.8968 329.386 79.6805Z" fill="white"></path>
  <path d="M343.158 96.5701C343.742 94.6027 345.195 92.4185 345.378 90.5678C345.545 88.6838 344.711 85.5159 343.843 82.2814C343.826 82.2814 343.809 82.2814 343.809 82.2647C339.436 81.2643 338.367 82.5148 336.715 84.5322C333.56 88.417 332.992 89.4007 329.403 91.2181C326.816 92.5186 324.412 92.4685 321.991 91.9684C325.046 94.5193 328.752 96.27 332.341 96.6201C336.147 97.0203 339.97 98.3541 343.158 96.5701Z" fill="white"></path>
  <path d="M345.562 76.846C345.578 79.0135 347.615 81.4144 346.83 82.4314C346.146 82.6815 344.961 82.5315 343.842 82.2814C344.727 85.5159 345.562 88.6838 345.378 90.5679C345.195 92.4186 343.742 94.6027 343.158 96.5701C343.208 96.5368 343.258 96.5201 343.308 96.5034C343.792 96.22 344.226 95.8699 344.644 95.4364C348.567 91.2014 350.219 89.0339 349.718 84.3322C349.368 83.0817 352.656 84.6323 354.943 88.6171C352.857 84.1821 350.687 80.1639 348.65 76.9794C347.916 75.8456 347.298 74.8953 346.697 73.9783C345.912 73.228 345.545 75.2287 345.562 76.846Z" fill="#FFD200"></path>
  <path d="M279.823 218.383C275.951 220.684 277.002 217.366 276.101 215.115C274.548 211.247 271.494 207.812 270.876 199.192C270.392 195.474 270.191 189.289 274.031 188.121C280.007 186.321 288.905 192.173 293.979 192.173C299.054 192.173 304.045 186.938 309.036 187.871C312.442 188.505 313.777 192.806 314.879 196.975C316.081 201.526 315.647 204.861 316.114 207.912C316.415 209.98 316.649 210.563 317.316 211.514C317.266 211.58 316.048 213.148 315.998 213.231C315.931 213.164 315.881 213.114 315.998 213.248C315.513 212.764 314.862 212.514 314.195 212.514C313.494 212.514 312.809 212.797 312.258 213.298C311.858 213.648 311.507 214.165 311.207 214.698C310.873 214.531 310.522 214.448 310.138 214.448C309.521 214.448 308.92 214.698 308.436 215.132C308.419 215.132 308.419 215.132 308.419 215.148C308.018 214.848 307.534 214.681 307 214.681C306.432 214.681 305.881 214.881 305.414 215.248C304.997 214.881 304.446 214.681 303.862 214.681C303.344 214.681 302.843 214.848 302.409 215.148C302.393 215.132 302.376 215.132 302.376 215.115C301.942 214.681 301.358 214.448 300.74 214.448C300.323 214.448 299.922 214.565 299.538 214.765C299.221 214.265 298.804 213.748 298.303 213.248C297.819 212.764 297.184 212.514 296.5 212.514C295.815 212.514 295.114 212.797 294.564 213.298C294.363 213.481 294.163 213.698 293.996 213.948C292.677 209.83 291.959 206.812 291.242 203.877C290.991 202.86 290.757 201.877 290.49 200.826C289.873 198.392 289.021 196.124 286.868 196.124C284.347 196.124 283.412 199.192 282.862 200.96C281.459 205.645 280.157 213.581 279.823 218.383Z" fill="#D71920"></path>
  <path d="M283.28 161.261C283.28 159.544 287.803 158.477 289.84 158.477C291.877 158.477 296.016 159.827 295.799 161.795C293.83 170.598 293.529 175.517 292.795 181.235C292.094 186.754 290.174 186.471 288.154 181.152C286.351 176.467 284.532 171.015 283.28 161.261ZM299.088 159.094C299.071 158.577 300.59 157.993 301.609 157.993C302.627 157.993 304.229 158.527 304.246 159.16C304.213 160.328 303.745 162.028 302.076 163.662C301.776 163.979 301.342 163.929 300.908 163.562C299.873 162.595 299.088 160.127 299.088 159.094ZM304.997 158.644C304.997 158.31 305.932 157.96 306.55 157.96C307.184 157.96 308.186 158.293 308.186 158.694C308.169 159.411 307.852 160.461 306.834 161.478C306.633 161.661 306.366 161.645 306.116 161.411C305.481 160.811 304.997 159.277 304.997 158.644ZM308.67 158.377C308.653 158.06 309.588 157.693 310.222 157.693C310.857 157.693 311.842 158.027 311.858 158.427C311.842 159.144 311.541 160.194 310.506 161.211C310.306 161.395 310.039 161.378 309.788 161.145C309.137 160.544 308.67 159.01 308.67 158.377ZM312.326 158.377C312.309 158.06 313.244 157.693 313.878 157.693C314.512 157.693 315.497 158.027 315.514 158.427C315.497 159.144 315.197 160.194 314.179 161.211C313.978 161.395 313.711 161.378 313.461 161.145C312.81 160.544 312.326 159.01 312.326 158.377ZM338.284 161.661C336.464 169.081 334.077 174.516 331.206 179.335C327.483 185.554 326.431 184.52 326.782 180.735C327.233 175.633 328.117 170.448 327.099 161.678C327.099 160.127 330.521 158.627 332.708 158.627C334.861 158.627 338.534 159.911 338.284 161.661ZM293.062 217.249C293.446 218.866 290.324 219.717 288.788 219.717C287.269 219.717 283.764 219.1 283.58 217.683C283.413 209.646 284.398 205.161 285.199 201.276C286.117 196.891 287.453 196.658 288.605 201.21C289.823 205.945 290.591 209.996 293.062 217.249ZM317.083 217.266C321.373 209.896 322.776 205.545 324.478 201.276C325.73 198.075 326.966 197.225 327.333 202.443C327.617 206.495 327.767 211.063 326.198 217.282C325.697 218.75 322.792 219.6 321.156 219.6C319.52 219.6 316.466 218.566 317.083 217.266ZM322.291 158.01C323.31 158.01 324.912 158.544 324.929 159.177C324.896 160.344 324.428 162.045 322.759 163.679C322.458 163.996 322.008 163.946 321.59 163.579C320.539 162.612 319.771 160.144 319.771 159.127C319.754 158.577 321.273 158.01 322.291 158.01ZM315.998 158.644C315.981 158.31 316.916 157.96 317.551 157.96C318.185 157.96 319.17 158.293 319.187 158.694C319.17 159.411 318.869 160.461 317.851 161.478C317.667 161.661 317.384 161.645 317.133 161.411C316.466 160.811 315.981 159.277 315.998 158.644ZM311.541 218.7C311.524 219.05 310.673 219.333 310.122 219.333C309.588 219.333 308.787 219.033 308.803 218.75C308.803 218.216 309.221 216.916 309.755 216.399C309.972 216.199 310.206 216.182 310.373 216.332C311.257 217.199 311.524 218.083 311.541 218.7ZM308.403 218.933C308.386 219.266 307.551 219.55 307.001 219.55C306.466 219.55 305.665 219.233 305.665 218.966C305.665 218.433 306.066 217.116 306.633 216.615C306.85 216.415 307.084 216.399 307.251 216.549C308.136 217.416 308.386 218.316 308.403 218.933ZM304.113 216.549C304.997 217.416 305.248 218.299 305.264 218.933C305.248 219.266 304.413 219.55 303.862 219.55C303.328 219.55 302.527 219.233 302.543 218.966C302.543 218.433 302.944 217.116 303.512 216.615C303.729 216.415 303.962 216.399 304.113 216.549ZM302.126 218.7C302.126 219.05 301.275 219.333 300.724 219.333C300.19 219.333 299.388 219.033 299.405 218.75C299.388 218.216 299.806 216.916 300.373 216.399C300.59 216.199 300.807 216.182 300.991 216.332C301.876 217.199 302.126 218.083 302.126 218.7ZM298.754 218.299C298.737 218.833 297.369 219.3 296.501 219.3C295.632 219.3 294.33 218.8 294.347 218.366C294.347 217.499 294.998 215.382 295.9 214.565C296.25 214.231 296.634 214.215 296.884 214.465C298.32 215.849 298.737 217.282 298.754 218.299ZM313.594 214.548C313.945 214.215 314.312 214.198 314.579 214.448C315.998 215.849 316.415 217.282 316.432 218.283C316.415 218.816 315.047 219.283 314.179 219.283C313.311 219.283 312.008 218.783 312.025 218.349C312.025 217.482 312.693 215.382 313.594 214.548Z" fill="white"></path>
  <path d="M381.686 286.025C387.462 291.277 399.147 301.414 402.87 307.9C403.654 309.267 403.304 308.65 403.32 308.667C404.689 302.948 405.49 296.129 406.575 290.36C399.564 282.857 391.986 273.12 388.547 267.068C381.936 255.48 378.965 245.876 369.4 236.29C367.697 234.589 364.943 232.071 362.255 228.837C360.369 231.621 358.516 233.872 355.728 236.823C355.828 238.04 356.145 241.892 356.229 244.059C356.947 262.533 368.248 273.837 381.686 286.025Z" fill="#FFD200"></path>
  <path d="M409.246 274.737C409.831 270.869 410.515 266.818 410.949 262.95C402.953 258.865 392.303 250.145 383.839 242.609C388.13 250.862 400.215 266.234 409.246 274.737Z" fill="#FFD200"></path>
  <path d="M366.395 221.334C374.358 209.329 373.64 187.671 371.336 170.932C373.005 171.832 374.641 172.982 376.377 174.566C374.658 171.198 373.222 169.398 370.735 167.113C370.652 166.563 370.551 165.713 370.435 165.129C371.92 166.18 373.022 167.047 374.057 168.164C375.259 153.608 374.825 142.171 370.201 129.149C370.201 129.149 371.687 128.916 373.039 129.466C372.722 128.532 372.237 127.148 371.653 125.514C369.567 126.648 367.396 127.615 364.959 128.532C365.443 131 365.844 133.551 366.161 136.085C362.038 136.102 357.547 137.135 352.923 138.719C352.94 138.553 352.974 138.369 352.974 138.202C353.057 136.035 353.024 134.151 352.923 132.484C344.109 135.235 336.33 137.202 338.317 135.401C341.906 133.667 345.795 132.017 349.852 130.516C350.119 130.416 350.386 130.3 350.67 130.216C351.304 129.983 351.955 129.766 352.59 129.549C359.501 127.165 366.795 125.281 373.84 124.281C372.939 124.097 372.02 124.014 371.086 123.964C370.117 121.296 368.932 118.128 367.697 114.944C366.161 115.861 364.375 116.844 362.372 117.878C362.989 119.896 363.574 122.163 364.125 124.564C360.369 125.348 356.412 126.748 352.406 128.499C352.005 126.465 351.404 124.747 350.62 123.113C344.093 125.648 339.352 127.132 340.838 125.564C350.87 119.696 359.183 115.344 371.186 112.226C371.47 112.159 371.737 112.093 371.954 112.026C370.451 111.876 368.031 112.043 366.662 112.276C366.261 111.242 365.844 110.225 365.46 109.242C365.31 108.875 364.458 106.741 364.292 106.374L365.46 106.524C360.152 91.8683 352.122 76.946 340.904 65.5751C344.777 70.8937 345.962 72.8445 348.667 77.0127C354.109 85.566 360.569 99.9547 363.891 112.926C358.966 114.327 354.259 117.095 349.151 120.329C348.784 119.712 348.4 119.079 347.982 118.428C347.081 117.011 343.876 114.227 341.372 112.876C342.24 114.71 342.574 117.378 341.656 120.446C340.003 125.948 337.382 129.032 334.294 132.784C331.656 135.985 328.451 143.354 322.525 143.888C322.492 144.488 322.475 145.055 322.475 145.372C322.475 148.973 326.515 153.792 328.735 154.859C333.008 156.893 333.776 157.043 338.834 155.909C343.909 154.759 346.697 151.391 348.4 149.273C349.768 147.589 350.954 145.639 351.788 143.555C342.757 145.855 334.561 147.456 336.664 145.689C340.554 144.021 344.777 142.487 349.167 141.187C349.234 141.154 349.318 141.137 349.385 141.12C356.663 138.953 364.375 137.402 371.737 136.852C370.151 137.786 368.398 138.536 366.528 139.203C366.996 144.221 367.013 149.023 366.395 152.958C368.131 154.525 369.583 156.459 371.169 159.294C369.951 158.26 368.732 157.343 367.513 156.476C363.257 153.358 360.202 151.858 355.427 151.041C358.132 152.308 360.485 153.942 362.622 155.726C362.338 168.497 360.602 186.754 356.446 195.908C354.977 193.84 353.591 192.423 351.354 190.822C351.321 191.006 350.987 191.606 350.937 191.789C354.092 195.507 355.745 198.142 357.631 203.327C354.66 199.876 352.206 197.291 349.902 195.174C345.462 207.812 339.569 210.43 334.594 210.797C334.594 210.797 339.335 220.584 335.062 230.071C334.728 230.821 334.561 231.838 334.461 232.922C335.713 235.489 335.379 237.023 336.314 240.074C344.21 236.79 353.458 227.203 358.866 219.583C361.253 221.751 363.54 224.102 366.612 227.536C364.809 222.884 363.223 220.283 360.536 217.116C360.836 216.665 361.036 216.515 361.337 216.065C363.423 217.582 364.675 218.733 366.395 221.334Z" fill="white"></path>
  <path d="M369.832 60.6565C362.187 61.5735 353.757 60.7398 346.996 57.0718C352.689 57.2552 356.895 56.2381 367.262 53.1036C364.09 53.3704 332.707 54.2874 314.378 49.6023C306.365 46.0343 280.374 35.6804 264.732 44.2503C239.125 35.8638 206.84 44.5504 197.409 51.6864C180.231 51.6864 162.119 50.4526 151.886 47.118C160.216 52.9536 166.81 53.9373 171.801 55.021C159.215 55.5212 150.184 53.6872 136.662 50.7361C141.169 55.1377 144.424 56.9551 151.118 58.9558C147.145 59.306 143.056 59.1059 138.699 58.3223C143.874 62.5905 156.978 69.6599 168.112 64.7413C171.334 63.3241 181.583 57.8387 190.281 56.8717C185.49 59.4393 177.844 66.3586 173.521 71.3105C173.37 71.5606 173.22 71.8107 173.07 72.0608C177.076 69.2264 181.717 66.9922 186.358 66.1252C179.397 71.2938 176.358 76.6292 176.091 82.298C178.512 79.697 180.382 77.0126 183.153 76.1456C183.804 75.9456 184.338 76.6458 184.889 77.8463C185.874 79.2635 186.608 82.5814 187.944 85.6326C189.413 88.6837 191.449 91.3847 194.671 91.7349C195.439 91.8182 196.257 91.9516 197.075 92.1017C193.469 88.3336 192.818 84.4488 194.504 81.8978C195.205 80.8308 196.157 78.3131 198.46 76.229C197.008 76.2457 195.639 76.279 194.721 74.9952C193.97 73.9615 193.502 72.611 193.135 71.3772C192.785 70.1434 191.549 67.9259 191.883 66.7754C194.888 66.8088 197.793 67.6758 200.764 66.8255C205.321 65.525 204.136 60.8732 209.628 57.0218C210.062 58.1555 210.246 59.2893 210.262 60.423C212.649 59.0725 216.439 57.3385 219.611 56.3548C221.43 55.788 223.567 55.2878 225.219 55.3711C227.94 55.5212 230.762 56.6216 233.332 57.522C236.721 58.7057 239.509 60.7398 242.146 62.9907C249.992 64.9581 255.718 69.9266 261.41 75.412C262.712 76.7625 263.43 77.8796 263.18 79.647C263.697 79.9804 264.215 80.2972 264.749 80.5807C268.104 82.3146 269.006 86.016 269.006 87.6833C269.006 87.9501 268.989 88.2836 268.956 88.6337C277.553 83.7485 284.747 80.8308 293.495 84.7322C285.348 84.1153 277.369 88.3169 270.742 93.969C266.318 97.7538 257.17 106.074 250.276 106.407C249.591 103.423 250.676 101.872 252.88 99.7879C255.751 97.5537 258.656 95.3529 261.577 93.3188C259.975 92.9853 258.239 93.002 256.352 93.1854C253.882 96.57 250.242 98.4874 247.922 99.6045C239.859 103.273 235.753 104.94 220.495 103.773C210.797 103.022 203.685 104.556 198.56 104.556C193.419 104.556 190.848 103.389 187.927 100.838C184.989 98.2873 183.67 94.5193 182.201 90.1343C181.901 103.206 185.506 135.635 198.878 143.021C200.998 141.52 205.071 140.403 208.643 140.453C203.401 142.971 197.793 147.989 194.704 154.142C206.824 143.588 216.005 140.937 231.095 140.887C224.835 151.624 223.467 160.861 223.717 169.981C223.867 175.683 224.635 180.068 225.837 183.636C228.224 191.206 232.247 198.942 237.255 204.644C236.053 201.876 234.985 199.092 234.1 196.358C237.673 200.159 241.913 204.127 246.42 210.263C252.146 218.099 255.985 219.25 260.041 230.137C260.342 225.752 265.533 225.652 265.433 220.917C264.665 217.899 263.38 214.898 261.21 210.58C257.12 202.41 243.014 174.116 242.43 156.843C242.23 150.857 246.103 147.456 247.421 144.822C248.306 143.071 248.323 141.404 247.989 139.72C240.761 137.986 232.564 135.518 227.39 133.267C233.232 132.617 239.642 133 246.203 134.018C245.485 131.683 244.984 129.099 245.669 126.048C245.702 125.914 245.735 125.798 245.769 125.664C239.459 123.73 233.9 121.846 228.391 119.629C234.584 119.245 240.961 120.012 247.405 121.463C248.59 119.195 250.226 116.944 252.179 114.727C241.312 110.959 233.249 107.357 228.324 104.823C237.506 104.99 246.837 107.407 255.985 110.742C258.038 108.758 260.492 106.674 263.08 104.706C265.433 102.839 268.004 100.238 270.425 98.5374C277.836 93.4188 287.869 86.883 296.533 92.3684C295.097 92.4351 293.595 92.5518 292.059 92.7686C286.951 93.3021 289.989 100.772 295.765 106.724C298.903 109.942 301.925 114.543 305.547 119.712C307.951 123.13 308.185 124.18 310.822 124.981C315.329 126.348 320.187 128.532 319.135 131.3C318.367 133.301 315.095 132.45 315.763 134.884C317.182 140.07 320.921 141.087 324.076 140.487C324.594 140.337 325.111 140.186 325.596 140.053C326.096 139.87 326.547 139.653 326.964 139.403C328.467 138.402 329.118 136.835 330.754 134.268C331.405 132.684 330.27 132.784 330.27 131.417C330.27 130.483 332.006 128.299 334.359 126.315C337.264 123.864 339.084 118.945 339.084 116.828C339.084 114.177 339.15 112.393 337.999 110.509C333.491 104.156 321.639 96.9368 320.17 95.8364C316.13 92.7686 312.308 92.3351 307.968 92.0517C310.204 90.0176 312.074 90.1676 313.81 90.7345C312.491 89.4507 311.807 88.7337 310.789 88.0168C307.133 85.4992 302.976 84.6155 297.801 84.2987C303.527 81.6644 306.782 81.8311 311.673 85.099L310.438 84.032C309.437 82.0145 310.672 79.9638 311.34 78.88C310.605 77.3628 310.722 75.9122 311.139 74.6284C312.341 71.3605 313.359 68.9596 314.645 67.1756C312.208 63.4575 308.836 59.5227 309.654 57.9388C310.188 56.8884 310.939 55.8046 312.508 55.5045C313.46 55.3044 318.618 55.8046 321.155 56.5049C326.58 58.0055 330.503 59.406 333.592 61.3901C333.241 61.0399 332.857 60.6731 332.473 60.323C329.468 57.9054 325.812 55.4879 321.255 52.9869C326.797 55.4545 333.441 58.4723 337.231 60.3897C344.542 64.0744 350.285 69.7766 363.038 69.0263C359.733 68.3427 354.475 65.8751 349.417 62.2737C351.72 62.4071 358.231 64.3245 369.832 60.6565ZM230.328 113.626C225.754 116.978 218.759 119.745 211.998 118.478C211.114 121.279 211.498 126.231 213.601 131.95C202.183 126.848 195.289 118.278 194.554 111.826C201.882 108.308 217.407 113.476 230.328 113.626ZM325.729 117.561C328.684 117.711 333.124 117.611 335.762 116.294C335.895 118.228 328.751 121.429 327.231 121.529C325.545 121.629 323.692 120.329 322.09 119.929C319.987 119.429 317.816 118.945 316.498 118.712C315.446 118.545 313.977 118.045 313.827 116.561C317.833 116.778 321.723 117.345 325.729 117.561ZM237.255 46.4511C248.807 44.2003 264.565 45.8342 270.291 50.2359C274.798 47.068 282.661 45.0172 296.015 47.2347C284.931 48.0017 281.859 48.6519 279.289 50.6193C282.577 49.8857 286.133 49.6857 292.359 51.1529C285.031 51.6697 275.9 53.7539 275.917 57.9054C271.009 54.3207 260.475 51.2696 250.96 51.2696C255.768 49.8357 259.374 49.9024 262.228 50.6193C256.319 47.835 251.161 46.6845 237.255 46.4511ZM286.333 71.1104C280.925 65.475 274.147 61.7402 260.976 59.5394C268.138 58.2722 278.103 59.8895 282.861 62.8073C287.986 58.7891 293.294 57.8054 299.504 58.6724C293.495 60.4564 285.115 65.3582 286.333 71.1104Z" fill="#FFD200"></path>
  <path d="M169.314 256.631C166.092 253.113 163.321 249.411 161.084 245.893C154.841 256.881 146.261 272.553 141.737 289.21C144.875 283.574 148.631 277.655 148.631 277.655C145.326 288.376 141.737 302.214 139.517 318.804C137.347 335.16 136.729 356.502 138.866 378.06C139.216 380.927 139.65 384.929 140.335 389.797C132.956 378.477 126.229 366.072 120.386 352.05C109.736 326.54 92.5255 277.372 92.5255 236.34C89.4373 184.953 94.9126 142.371 101.874 103.789C98.4015 104.606 95.2131 105.423 92.3252 106.207C68.1368 214.931 83.9953 313.285 134.826 386.496C143.156 398.617 156.327 414.207 164.957 421.776C142.889 372.691 142.822 303.648 169.314 256.631Z" fill="#FFD200"></path>
  <path d="M363.891 95.5031C369.717 88.9673 375.493 78.53 377.93 59.9563C379.015 51.8199 374.074 48.602 365.344 48.602C343.976 48.5854 331.123 47.4349 314.129 44.9673C285.667 27.4274 257.639 37.848 257.639 37.848C223.318 28.6112 192.603 44.4338 192.603 44.4338C176.594 44.5839 158.398 43.6669 146.062 41.8495C140.437 40.9492 136.914 40.1155 132.207 40.7991C124.311 41.9662 123.727 67.1424 133.309 81.998C135.379 85.5326 139.969 91.1181 144.777 96.0366C131.973 97.7706 120.989 99.688 111.691 101.605C102.643 146.572 99.9723 185.237 99.9723 217.366C99.9723 275.504 112.96 338.511 140.353 389.798C132.858 378.36 126.331 366.255 120.405 352.05C109.755 326.54 92.5438 277.372 92.5438 236.34C89.4556 184.937 94.931 142.371 101.892 103.773C79.0057 109.192 69.3236 114.043 69.3236 114.043C51.3618 189.889 58.9739 260.015 84.9818 319.138C54.5502 259.999 44.7346 188.238 64.2155 108.141C64.2155 108.141 85.1488 97.904 138.066 90.6346C133.759 86.0495 129.903 80.7308 128 77.5797C117.283 61.2235 119.787 36.1307 127.95 34.9802C132.824 34.2966 136.464 34.7802 142.289 35.6638C155.043 37.4645 170.05 39.6153 186.61 39.4819C186.61 39.4819 216.758 22.092 255.87 31.8791C255.87 31.8791 285.751 20.0746 316.216 40.4823C333.794 42.9499 346.948 42.1496 369.05 42.1663C378.081 42.183 383.756 46.3512 383.205 54.5376C382.254 68.7263 376.845 80.2473 369.5 89.9343C426.291 97.2371 448.593 108.141 448.593 108.141C468.057 188.238 458.258 259.999 427.826 319.154C453.851 260.032 461.446 189.905 443.501 114.043C443.501 114.043 433.819 109.175 410.916 103.773C417.877 142.371 423.369 184.937 420.281 236.34C420.281 277.372 403.07 326.54 392.42 352.05C386.477 366.255 379.967 378.343 372.472 389.798C399.865 338.511 412.836 275.504 412.836 217.366C412.836 185.237 410.165 146.589 401.117 101.622" fill="white"></path>
  <path d="M420.481 106.19C417.593 105.423 414.421 104.606 410.933 103.773C417.894 142.354 423.369 184.937 420.297 236.323C420.297 276.605 403.721 324.74 393.021 350.616C392.82 351.1 392.62 351.583 392.436 352.05C384.774 370.39 385.859 363.838 393.188 342.43C393.037 338.845 391.619 334.31 390.784 331.876C386.21 318.421 379.266 307.983 371.72 299.997C368.565 296.662 365.36 293.711 362.355 291.127C349.268 279.889 342.273 273.737 343.759 254.18C343.793 253.746 343.826 253.313 343.876 252.862C344.11 250.345 344.661 248.227 345.412 246.443C341.222 249.628 336.715 252.429 332.124 254.48C331.657 256.497 329.954 262.8 326.181 267.185C330.338 281.206 340.771 296.012 346.263 302.698C343.359 296.912 342.524 293.378 340.254 286.959C348.7 297.929 358.649 313.419 359.551 329.491C354.209 323.856 348.634 319.104 344.694 317.17C352.122 333.91 351.338 344.647 346.764 360.703C337.633 392.832 321.741 397.85 301.893 432.263C306.517 427.228 310.573 423.36 315.247 420.442C305.849 430.896 297.085 447.753 297.068 463.625C304.68 458.457 312.56 452.888 320.823 446.819C332.291 437.365 342.975 427.545 352.79 417.124C361.003 408.855 371.169 396.5 378.047 386.48C428.828 313.285 444.703 214.915 420.481 106.19Z" fill="#FFD200"></path>
  <path d="M410.932 103.773C417.893 142.371 423.385 184.937 420.297 236.34C420.297 277.372 403.086 326.557 392.436 352.05C386.493 366.255 379.983 378.343 372.488 389.798C399.881 338.511 412.852 275.504 412.852 217.349C412.852 185.22 410.181 146.572 401.133 101.605L410.932 103.773Z" fill="white"></path>
</svg>
