<?xml version="1.0"?>
<svg xmlns="http://www.w3.org/2000/svg" viewBox="0 0 708.8 752.4" width="306.9" height="325.8" style="enable-background:new 0 0 708.8 752.4;">
<style type="text/css">
	.st0{fill-rule:evenodd;clip-rule:evenodd;fill:#031A29;}
</style>
<path class="st0" d="M357.8,659.6c136,3.9,294.3-54.7,351-108.3l-44.1-80.9c0,0-121,101.2-306.9,93.8v-38.4 c42.6,0.4,128.9-1.6,197.7-22.1V437c0,0-109.1,25.6-197.7,17.4v-16.1h52.9v-81.7h-52.9v-22.9c36-3.8,91.9-1.4,177.4,18.4l0.5-67.9 c0,0-105-21.8-177.9-17.1v-37.4c41.9-2.3,84-1.6,125.8,2v29.6h67.5l0-20.8c25.9,4.6,52.4,10.9,78.4,19.2l24-113.8 c0,0-40.8-10.7-102.5-17.4l0-37.1V0H470v29.7H344.2V0h-54.7l0.2,29.7v112.1C170.2,171.5,54.2,243,0,399c0,0,64.7,205.8,289.7,252.6 v31.1h-60.1v69.7h202.7v-69.7h-74.5L357.8,659.6L357.8,659.6z M289.7,437.5c-17.2-8.5-30.5-20.4-37.7-36.9c0,0,9.5-23.9,37.7-41.9 V437.5z M357.8,90.6h125.8v33c-38.9-1.4-81.8-0.3-125.8,5.4V90.6z M128.6,399.9c0,0,5.1-98.4,161.1-157.7v39 c-34.1,12.5-88.1,43.4-117.4,118c0,0,24,78.9,117.4,114.3v39.8C239.5,537.7,159.1,498.2,128.6,399.9L128.6,399.9z"/>
</svg>
